# xmcd
#
# Track frame offsets:
#	150
#	12076
#	31264
#	50099
#	67292
#	86059
#	108859
#	130207
#	148966
#	166294
#	183751
#	200269
#	217806
#	236387
#	254245
#	269291
#
# Disc length: 3810 seconds
#
# Revision: 1
# Processed by: cddbd v1.5.1PL0 Copyright (c) Steve Scherf et al.
# Submitted via: audiograbber 1.83.01
#
DISCID=e80ee010
DTITLE=Various Artist - Country Female Volume 2
DYEAR=2002
DGENRE=Country
TTITLE0=Dixie Chicks - Some Days You Gotta Dance
TTITLE1=Martina McBride - Blessed
TTITLE2=Jo Dee Messina w/Tim McGraw - Bring On The Rain
TTITLE3=LeAnn Rimes - Can't Fight The Moonlight
TTITLE4=Alison Krauss w/Gillian Welch - I'll Fly Away
TTITLE5=Lee Ann Womack - I Hope You Dance
TTITLE6=Sara Evans - I Keep Looking
TTITLE7=Kellie Coffey - When You Lie Next To Me
TTITLE8=Jo Dee Messina - Downtime
TTITLE9=Mindy McCready - Maybe, Maybe Not
TTITLE10=Trisha Yearwood - Inside Out
TTITLE11=Faith Hill - There You'll Be
TTITLE12=Carolyn Dawn Johnson - I Don't Want You To Go
TTITLE13=LeAnn Rimes - I Need You
TTITLE14=Cyndi Thomson - What I Really Meant To Say
TTITLE15=Jo Dee Messina - That's The Way
EXTD=
EXTT0=
EXTT1=
EXTT2=
EXTT3=
EXTT4=
EXTT5=
EXTT6=
EXTT7=
EXTT8=
EXTT9=
EXTT10=
EXTT11=
EXTT12=
EXTT13=
EXTT14=
EXTT15=
PLAYORDER=
